<svg xmlns="http://www.w3.org/2000/svg" xmlns:xlink="http://www.w3.org/1999/xlink" viewBox="0 0 643.93 643.93"><defs><linearGradient id="a" x1="-24.16" y1="-190.81" x2="515.4" y2="608.54" gradientUnits="userSpaceOnUse"><stop offset="0.3" stop-color="#9a131c"/><stop offset="1" stop-color="#690a17"/></linearGradient><linearGradient id="b" x1="134.55" y1="43.07" x2="470.27" y2="542.66" gradientUnits="userSpaceOnUse"><stop offset="0" stop-color="#f1ed46"/><stop offset="1" stop-color="#b37f23"/></linearGradient><linearGradient id="c" x1="157.7" y1="321.97" x2="486.23" y2="321.97" gradientUnits="userSpaceOnUse"><stop offset="0" stop-color="#2a2a3a"/><stop offset="1" stop-color="#262626"/></linearGradient><linearGradient id="d" x1="303.05" y1="232.92" x2="373.23" y2="373.27" xlink:href="#b"/><linearGradient id="e" x1="309.69" y1="247.43" x2="355.03" y2="334.87" gradientUnits="userSpaceOnUse"><stop offset="0" stop-color="#ce1d21"/><stop offset="0.51" stop-color="#9a131c"/><stop offset="1" stop-color="#690a17"/></linearGradient></defs><title>shield</title><circle cx="321.97" cy="321.97" r="321.97" fill="url(#a)"/><circle cx="321.97" cy="321.97" r="243.12" fill="url(#b)"/><circle cx="321.97" cy="321.97" r="164.27" fill="url(#c)"/><path d="M366.74,270.75h29.85L322,399.47,247.34,270.75h57.09L322,300.6l17.16-29.85Z" fill="#41b883"/><path d="M247.34,270.75,322,399.47l74.62-128.72H366.74L322,348l-45.15-77.23Z" fill="url(#d)"/><path d="M276.82,270.75,322,348.35l44.77-77.6H339.13L322,300.6l-17.54-29.85Z" fill="url(#e)"/></svg>